<?xml version="1.0" encoding="UTF-8"?>
<!-- Generator: Adobe Illustrator 27.2.0, SVG Export Plug-In . SVG Version: 6.00 Build 0)  -->
<svg version="1.1" id="Calque_1" xmlns="http://www.w3.org/2000/svg" xmlns:xlink="http://www.w3.org/1999/xlink" x="0px" y="0px" viewBox="0 0 252 69" style="enable-background:new 0 0 252 69;" xml:space="preserve">
<style type="text/css">
	.st0{fill:#FFFFFF;}
	.st1{fill:#4263A3;}
</style>
<g>
	<rect x="9.9" y="13.1" class="st0" width="233.1" height="0.4"/>
	<g>
		<path class="st0" d="M15,6.3c0,1.3-0.9,2.4-2.6,2.4s-2.6-1-2.6-2.4V1.8h1.4v4.4c0,0.9,0.4,1.3,1.1,1.3c0.8,0,1.1-0.4,1.1-1.3V1.8    H15V6.3z"/>
		<path class="st0" d="M20.6,4.8v3.8h-1.4V5c0-0.6-0.2-0.8-0.6-0.8c-0.4,0-0.7,0.3-1,0.7v3.6h-1.4V3.4h1.2L17.6,4    c0.4-0.5,0.9-0.8,1.6-0.8C20.1,3.2,20.6,3.8,20.6,4.8z"/>
		<path class="st0" d="M26.3,6.4h-3.2c0.1,1,0.6,1.3,1.2,1.3c0.4,0,0.8-0.1,1.3-0.4L26.1,8c-0.5,0.4-1.1,0.7-2,0.7    c-1.7,0-2.5-1.1-2.5-2.7c0-1.6,0.8-2.8,2.4-2.8c1.5,0,2.3,1,2.3,2.6C26.3,6,26.3,6.2,26.3,6.4z M24.9,5.4c0-0.8-0.3-1.3-0.9-1.3    c-0.5,0-0.9,0.4-1,1.3L24.9,5.4C24.9,5.5,24.9,5.4,24.9,5.4z"/>
		<path class="st0" d="M34,6.4h-3.2c0.1,1,0.6,1.3,1.2,1.3c0.4,0,0.8-0.1,1.3-0.4L33.9,8c-0.5,0.4-1.2,0.7-2,0.7    c-1.7,0-2.5-1.1-2.5-2.7c0-1.6,0.8-2.8,2.4-2.8c1.5,0,2.3,1,2.3,2.6C34.1,6,34,6.2,34,6.4z M30.8,2.4l-0.4-0.7l2.1-1.2L33,1.5    L30.8,2.4z M32.7,5.4c0-0.8-0.3-1.3-0.9-1.3c-0.5,0-0.9,0.4-1,1.3L32.7,5.4L32.7,5.4z"/>
		<path class="st0" d="M38.9,3.8l-0.6,0.8c-0.3-0.2-0.6-0.4-1-0.4c-0.7,0-1.1,0.5-1.1,1.7c0,1.2,0.4,1.6,1.1,1.6    c0.4,0,0.6-0.1,1-0.4l0.6,0.9c-0.5,0.4-1,0.6-1.7,0.6c-1.5,0-2.5-1.1-2.5-2.7c0-1.6,1-2.8,2.5-2.8C37.9,3.2,38.5,3.4,38.9,3.8z"/>
		<path class="st0" d="M44.4,5.9c0,1.6-0.9,2.7-2.5,2.7s-2.5-1-2.5-2.7c0-1.7,0.9-2.7,2.5-2.7C43.4,3.2,44.4,4.2,44.4,5.9z     M40.8,5.9c0,1.2,0.3,1.7,1,1.7s1-0.5,1-1.7c0-1.2-0.3-1.7-1-1.7C41.2,4.2,40.8,4.8,40.8,5.9z"/>
		<path class="st0" d="M45.4,7.3v-6l1.4-0.2v6.1c0,0.2,0.1,0.3,0.3,0.3c0.1,0,0.2,0,0.3-0.1l0.3,1c-0.2,0.1-0.5,0.2-0.9,0.2    C45.9,8.7,45.4,8.2,45.4,7.3z"/>
		<path class="st0" d="M52.6,6.4h-3.2c0.1,1,0.6,1.3,1.2,1.3c0.4,0,0.8-0.1,1.3-0.4L52.5,8c-0.5,0.4-1.2,0.7-2,0.7    C48.9,8.7,48,7.6,48,6c0-1.6,0.8-2.8,2.3-2.8c1.5,0,2.3,1,2.3,2.6C52.7,6,52.6,6.2,52.6,6.4z M51.3,5.4c0-0.8-0.3-1.3-0.9-1.3    c-0.5,0-0.9,0.4-1,1.3L51.3,5.4L51.3,5.4z"/>
		<path class="st0" d="M60.5,1.3v7.2h-1.2l-0.1-0.6c-0.3,0.5-0.8,0.8-1.5,0.8c-1.3,0-2-1.1-2-2.7c0-1.6,0.8-2.7,2.1-2.7    c0.5,0,1,0.2,1.3,0.5V1.2L60.5,1.3z M59.1,7V4.7c-0.2-0.3-0.5-0.5-0.9-0.5c-0.6,0-1,0.5-1,1.7c0,1.3,0.4,1.7,0.9,1.7    C58.6,7.7,58.9,7.4,59.1,7z"/>
		<path class="st0" d="M66.2,6.4H63c0.1,1,0.6,1.3,1.2,1.3c0.4,0,0.8-0.1,1.3-0.4L66.1,8c-0.5,0.4-1.2,0.7-2,0.7    c-1.7,0-2.5-1.1-2.5-2.7c0-1.6,0.8-2.8,2.3-2.8c1.5,0,2.3,1,2.3,2.6C66.2,6,66.2,6.2,66.2,6.4z M64.9,5.4c0-0.8-0.3-1.3-0.9-1.3    c-0.5,0-0.9,0.4-1,1.3L64.9,5.4L64.9,5.4z"/>
	</g>
	<g>
		<g>
			<path class="st0" d="M229,68.5H23c-12.6,0-22.9-10.3-22.9-22.9v-0.3c0-12.6,10.3-22.9,22.9-22.9h206c12.6,0,22.9,10.3,22.9,22.9     v0.3C251.9,58.2,241.6,68.5,229,68.5"/>
			<path class="st1" d="M18.5,45.5c0,7.6,6.2,13.8,13.8,13.8c3.6,0,6.5-1.4,8.5-2.9l-2.9-3.2c-1.6,1.2-3.5,1.8-5.6,1.8     c-5.2,0-9.4-4.2-9.4-9.4s4.2-9.4,9.4-9.4c1.3,0,2.6,0.3,3.8,0.8l1.7-4c-1.7-0.7-3.6-1.1-5.5-1.1C24.7,31.7,18.5,37.9,18.5,45.5"/>
			<path class="st1" d="M25,45.5c0,4.1,3.3,7.4,7.4,7.4c1.6,0,3.1-0.5,4.1-1.3c0,0-2.7-3-3-3.3c-0.2,0.1-0.7,0.2-1.2,0.2     c-1.6,0-3-1.3-3-3s1.4-3,3-3c0.4,0,0.8,0.1,1.2,0.3l1.7-4c-0.9-0.4-1.8-0.6-3-0.6C28.3,38.1,25,41.4,25,45.5"/>
			<path class="st1" d="M37.8,42.6c0.4,0.8,0.7,1.8,0.7,2.9c0,1.4-0.6,2.9-1.4,3.9l3,3.3c1.7-1.8,2.8-4.3,2.8-7.1     c0-1.7-0.4-3.3-1.1-4.7L37.8,42.6z"/>
			<path class="st1" d="M36.6,41l7.5-3.5c-1.1-1.6-2.6-3.1-4.2-4L36.6,41L36.6,41z"/>
			<g>
				<path class="st1" d="M61.4,33.6L60.2,35c-0.6-0.5-1.2-0.7-1.9-0.7c-1.4,0-2.3,1.1-2.3,3.7c0,2.6,0.9,3.7,2.4,3.7      c0.8,0,1.5-0.4,2.1-0.9l1.1,1.5c-0.7,0.7-1.9,1.4-3.3,1.4c-2.9,0-4.9-2-4.9-5.6c0-3.6,2.1-5.6,4.9-5.6      C59.5,32.4,60.5,32.8,61.4,33.6z"/>
				<path class="st1" d="M70.1,33.6L68.9,35c-0.6-0.5-1.2-0.7-1.9-0.7c-1.4,0-2.3,1.1-2.3,3.7c0,2.6,0.9,3.7,2.4,3.7      c0.8,0,1.5-0.4,2.1-0.9l1.1,1.5c-0.7,0.7-1.9,1.4-3.3,1.4c-2.9,0-4.9-2-4.9-5.6c0-3.6,2.1-5.6,4.9-5.6      C68.2,32.4,69.2,32.8,70.1,33.6z"/>
				<path class="st1" d="M73.7,43.4h-2.5V32.7h2.5V43.4z"/>
				<path class="st1" d="M87,36.2c0,2.5-1.8,3.6-4.2,3.6h-1.2v3.6h-2.5V32.7h3.5C85.3,32.7,87,33.8,87,36.2z M84.4,36.2      c0-1.1-0.6-1.7-1.9-1.7h-0.9V38h0.9C83.7,38,84.4,37.5,84.4,36.2z"/>
				<path class="st1" d="M93.2,41.1h-3.1l-0.5,2.3H87l3.2-10.7h3.1l3.2,10.7h-2.7L93.2,41.1z M92.8,39.3l-1.1-4.7l-1.1,4.7H92.8z"/>
				<path class="st1" d="M100.6,39.3h-1v4.1h-2.5V32.7h3.5c2.9,0,4.4,1,4.4,3.3c0,1.4-0.7,2.2-2.1,2.9l2.7,4.5h-2.8L100.6,39.3z       M99.7,37.6h1.1c1.1,0,1.7-0.5,1.7-1.6c0-1-0.6-1.5-1.8-1.5h-0.9C99.6,34.5,99.6,37.6,99.7,37.6z"/>
				<path class="st1" d="M109,43.4h-2.5V32.7h2.5V43.4z"/>
				<path class="st1" d="M118,33.8l-1.2,1.4c-0.7-0.6-1.5-0.9-2.3-0.9c-0.9,0-1.4,0.4-1.4,1s0.4,1,2.1,1.5c2,0.7,3.2,1.5,3.2,3.5      c0,2-1.6,3.4-4.2,3.4c-1.8,0-3.2-0.7-4.1-1.5l1.3-1.4c0.8,0.7,1.6,1,2.7,1c1.1,0,1.7-0.5,1.7-1.3c0-0.8-0.4-1.1-2-1.6      c-2.4-0.7-3.3-1.7-3.3-3.3c0-1.9,1.6-3.1,3.9-3.1C115.9,32.4,117.1,32.9,118,33.8z"/>
				<path class="st1" d="M125.6,43.4H123V32.7h2.5V43.4z"/>
				<path class="st1" d="M129.9,41.4h4.2l-0.3,2h-6.4V32.7h2.5L129.9,41.4L129.9,41.4z"/>
				<path class="st1" d="M141.4,34.5h-3.8v2.6h3.3v1.8h-3.3v2.7h4v1.8h-6.6V32.7h6.6L141.4,34.5z"/>
				<path class="st1" d="M142.8,37.6h4.9v1.9h-4.9V37.6z"/>
				<path class="st1" d="M157.8,38c0,4.3-2.6,5.4-5.3,5.4h-3.2V32.7h3C155.1,32.7,157.8,33.6,157.8,38z M151.8,34.5v7h0.8      c1.5,0,2.6-0.7,2.6-3.6c0-2.9-1.1-3.5-2.6-3.5H151.8z"/>
				<path class="st1" d="M165.4,34.5h-3.8v2.6h3.3v1.8h-3.3v2.7h4v1.8h-6.6V32.7h6.6L165.4,34.5z"/>
				<path class="st1" d="M166.8,37.6h4.9v1.9h-4.9V37.6z"/>
				<path class="st1" d="M173.2,32.7h6.4l-0.3,1.8h-3.6v2.8h3.1v1.8h-3.1v4.2h-2.5V32.7z"/>
				<path class="st1" d="M184.1,39.3h-1v4.1h-2.5V32.7h3.5c2.9,0,4.4,1,4.4,3.3c0,1.4-0.7,2.2-2.1,2.9l2.7,4.5h-2.9L184.1,39.3z       M183.1,37.6h1.1c1.1,0,1.7-0.5,1.7-1.6c0-1-0.6-1.5-1.9-1.5h-0.9L183.1,37.6L183.1,37.6z"/>
				<path class="st1" d="M195,41.1h-3.1l-0.5,2.3h-2.6l3.2-10.7h3.1l3.2,10.7h-2.7L195,41.1z M194.6,39.3l-1.1-4.7l-1.1,4.7H194.6z"/>
				<path class="st1" d="M207.1,43.4h-3.2l-3.1-8.3c0.1,1,0.3,2.4,0.3,4.4v3.9h-2.2V32.7h3.1l3.2,8.3c-0.1-0.9-0.3-2.3-0.3-4v-4.3      h2.3L207.1,43.4L207.1,43.4z"/>
				<path class="st1" d="M216.6,33.6l-1.2,1.4c-0.6-0.5-1.2-0.7-1.9-0.7c-1.4,0-2.3,1.1-2.3,3.7c0,2.6,0.9,3.7,2.4,3.7      c0.9,0,1.5-0.4,2.1-0.9l1.1,1.5c-0.7,0.7-1.9,1.4-3.4,1.4c-2.9,0-4.9-2-4.9-5.6c0-3.6,2.1-5.6,4.9-5.6      C214.7,32.4,215.7,32.8,216.6,33.6z"/>
				<path class="st1" d="M224,34.5h-3.8v2.6h3.3v1.8h-3.3v2.7h4v1.8h-6.6V32.7h6.6L224,34.5z"/>
				<path class="st1" d="M60,49.1h-3.8v2.6h3.3v1.8h-3.3v2.7h4V58h-6.6V47.3h6.6L60,49.1z"/>
				<path class="st1" d="M70.2,52.6c0,4.3-2.6,5.4-5.3,5.4h-3.2V47.3h3C67.6,47.3,70.2,48.2,70.2,52.6z M64.2,49.2v7h0.8      c1.5,0,2.6-0.7,2.6-3.6c0-2.9-1.1-3.5-2.6-3.5H64.2z"/>
				<path class="st1" d="M79.8,54.5c0,2.2-1.4,3.8-4.2,3.8s-4.2-1.6-4.2-3.8v-7.1H74v7c0,1.4,0.5,2,1.6,2c1.2,0,1.7-0.7,1.7-2v-7      h2.5V54.5z"/>
				<path class="st1" d="M89.1,48.2l-1.2,1.4c-0.6-0.5-1.2-0.7-1.9-0.7c-1.4,0-2.3,1.1-2.3,3.7c0,2.6,0.9,3.7,2.4,3.7      c0.8,0,1.5-0.4,2.1-0.9l1.1,1.5c-0.7,0.7-1.9,1.4-3.3,1.4c-2.9,0-4.9-2-4.9-5.6c0-3.6,2.1-5.6,4.9-5.6      C87.3,47.1,88.2,47.5,89.1,48.2z"/>
				<path class="st1" d="M95.3,55.7h-3.1L91.6,58H89l3.2-10.7h3.1L98.5,58h-2.7L95.3,55.7z M94.9,53.9l-1.1-4.7l-1.1,4.7H94.9z"/>
				<path class="st1" d="M106.2,49.3h-2.6V58h-2.5v-8.8h-2.8v-1.9h8.2L106.2,49.3z"/>
				<path class="st1" d="M109.9,58h-2.5V47.3h2.5V58z"/>
				<path class="st1" d="M120.9,52.7c0,3.5-1.8,5.6-4.8,5.6c-3,0-4.8-2-4.8-5.6c0-3.5,1.8-5.6,4.8-5.6      C119.1,47.1,120.9,49.1,120.9,52.7z M113.9,52.7c0,2.7,0.8,3.8,2.2,3.8c1.4,0,2.2-1,2.2-3.8c0-2.7-0.7-3.8-2.2-3.8      C114.6,48.9,113.9,50,113.9,52.7z"/>
				<path class="st1" d="M130.5,58h-3.2l-3.1-8.3c0.1,1,0.3,2.4,0.3,4.4V58h-2.2V47.3h3.2l3.2,8.3c-0.1-0.9-0.3-2.3-0.3-4v-4.3h2.3      L130.5,58L130.5,58z"/>
			</g>
		</g>
	</g>
</g>
</svg>