<?xml version="1.0" encoding="UTF-8"?>
<!-- Generator: Adobe Illustrator 27.8.1, SVG Export Plug-In . SVG Version: 6.00 Build 0)  -->
<svg version="1.1" id="Calque_1" xmlns="http://www.w3.org/2000/svg" xmlns:xlink="http://www.w3.org/1999/xlink" x="0px" y="0px" viewBox="0 0 162 44" style="enable-background:new 0 0 162 44;" xml:space="preserve">
<style type="text/css">
	.st0{fill:#FFFFFF;}
</style>
<g>
	<g>
		<path class="st0" d="M22.7,33c-1.8-1.2-3.9-1.9-6.1-1.9c-2.9,0-5.6,1.1-7.6,3c-1.1,1.1-1.9,2.3-2.4,3.7l-0.2,0.6H11l0.1-0.2    c0.2-0.4,0.5-0.7,0.8-1h0c1.2-1.2,2.8-1.8,4.6-1.8c2.2,0,4.2,1.1,5.4,2.9l0.1,0.2h4.7l-0.2-0.6C25.8,35.9,24.4,34.2,22.7,33z"/>
		<path class="st0" d="M4.3,14.3c-1.1-1.1-2.3-1.9-3.7-2.4L0,11.7v4.7l0.2,0.1c0.4,0.2,0.7,0.5,1,0.8C2.4,18.5,3,20.2,3,21.9    c0,2.2-1.1,4.2-2.9,5.4L0,27.4v4.7l0.6-0.2c2-0.8,3.6-2.1,4.9-3.9c1.2-1.8,1.9-3.9,1.9-6.1C7.3,19,6.2,16.3,4.3,14.3z"/>
		<path class="st0" d="M10.5,10.8c1.8,1.2,3.9,1.9,6.1,1.9c2.9,0,5.6-1.1,7.6-3c1.1-1.1,1.9-2.3,2.4-3.7l0.2-0.6h-4.7l-0.1,0.2    c-0.2,0.4-0.5,0.7-0.8,1h0c-1.2,1.2-2.8,1.8-4.6,1.8c-2.2,0-4.2-1.1-5.4-2.9l-0.1-0.2H6.4L6.6,6C7.4,7.9,8.8,9.6,10.5,10.8z"/>
		<path class="st0" d="M33,16.5l0.2-0.1v-4.7l-0.6,0.2c-2,0.8-3.6,2.1-4.9,3.9c-1.2,1.8-1.9,3.9-1.9,6.1c0,2.9,1.1,5.6,3,7.6    c1.1,1.1,2.3,1.9,3.7,2.4l0.6,0.2v-4.7L33,27.4c-0.4-0.2-0.7-0.5-1-0.8c-1.2-1.2-1.8-2.8-1.8-4.6C30.2,19.7,31.2,17.7,33,16.5z"/>
	</g>
	<circle class="st0" cx="16.6" cy="21.9" r="4.3"/>
	<g>
		<path class="st0" d="M46.6,15.2c-0.6-0.6-0.9-1.3-0.9-2.2V5.4H43V13c0,1.6,0.5,2.9,1.6,3.9c1.1,1,2.4,1.6,4,1.6    c1.6,0,2.9-0.5,4-1.6c1.1-1,1.6-2.4,1.6-3.9V5.4h-2.7V13c0,0.9-0.3,1.6-0.9,2.2c-0.6,0.6-1.3,0.9-2.1,0.9    C47.8,16.1,47.1,15.8,46.6,15.2z"/>
		<path class="st0" d="M62.6,11.9c0.3,0.3,0.5,0.8,0.5,1.4v4.9h2.4V13c0-1.2-0.3-2.2-1-2.9c-0.6-0.7-1.5-1.1-2.5-1.1    c-0.5,0-1,0.1-1.4,0.4c-0.4,0.2-0.7,0.4-0.9,0.6c-0.1,0.1-0.2,0.3-0.3,0.4l-0.1,0.1V9.3H57v9h2.4v-4.7c0-0.7,0.2-1.2,0.5-1.6    c0.3-0.4,0.8-0.6,1.4-0.6C61.9,11.4,62.3,11.6,62.6,11.9z"/>
		<path class="st0" d="M69.3,7.9c0.4,0,0.8-0.1,1-0.4c0.3-0.2,0.4-0.6,0.4-1c0-0.4-0.1-0.7-0.4-1c-0.3-0.2-0.6-0.4-1-0.4    c-0.4,0-0.7,0.1-1,0.4s-0.4,0.6-0.4,1c0,0.4,0.1,0.7,0.4,1C68.5,7.8,68.9,7.9,69.3,7.9z"/>
		<rect x="68.1" y="9.3" class="st0" width="2.4" height="9"/>
		<polygon class="st0" points="78.9,9.3 76.7,15.4 76.6,15.3 74.5,9.3 72,9.3 75.4,18.2 77.9,18.2 81.3,9.3   "/>
		<path class="st0" d="M88.3,18.3c0.4-0.1,0.8-0.2,1.1-0.4c0.3-0.1,0.5-0.3,0.8-0.5c0.2-0.2,0.4-0.3,0.5-0.4l0.1-0.1l-1.2-1.6    l-0.2,0.2c-0.2,0.2-0.4,0.4-0.9,0.6c-0.4,0.2-0.9,0.3-1.3,0.3c-0.7,0-1.2-0.2-1.7-0.5c-0.4-0.3-0.7-0.8-0.8-1.3l0-0.1h6.6l0.1-1    c0-1.3-0.4-2.3-1.3-3.2c-0.8-0.9-1.9-1.3-3.2-1.3s-2.4,0.5-3.3,1.4c-0.9,0.9-1.4,2-1.4,3.3s0.5,2.4,1.4,3.3    c0.9,0.9,2.1,1.4,3.4,1.4C87.4,18.4,87.9,18.4,88.3,18.3z M84.7,12.8c0.2-0.5,0.4-0.9,0.8-1.2c0.4-0.3,0.8-0.5,1.4-0.5    c0.5,0,1,0.2,1.4,0.5c0.4,0.3,0.6,0.7,0.7,1.2l0,0.1L84.7,12.8L84.7,12.8z"/>
		<path class="st0" d="M98.6,11.5V9.2h-0.3c-0.5,0-1,0.1-1.4,0.3c-0.4,0.2-0.7,0.4-0.9,0.5c-0.1,0.1-0.2,0.2-0.3,0.3l-0.1,0.1V9.3    h-2.4v9h2.4v-4.3c0-0.8,0.2-1.4,0.6-1.8c0.4-0.4,0.9-0.6,1.6-0.6C98.2,11.5,98.5,11.5,98.6,11.5z"/>
		<path class="st0" d="M106.2,14.2c-0.3-0.4-0.6-0.6-1-0.8c-0.4-0.2-0.8-0.3-1.2-0.4c-0.4-0.1-0.8-0.3-1-0.4    c-0.3-0.2-0.5-0.4-0.5-0.6c0-0.2,0.1-0.4,0.3-0.6c0.2-0.2,0.5-0.2,0.8-0.2c0.3,0,0.6,0.1,0.8,0.2c0.3,0.1,0.4,0.3,0.5,0.3    c0.1,0.1,0.1,0.1,0.1,0.2l1.2-1.4l-0.3-0.3c-0.2-0.2-0.6-0.4-1.1-0.7c-0.5-0.2-1.1-0.3-1.7-0.3c-1,0-1.8,0.3-2.5,0.9    c-0.7,0.6-1,1.2-1,1.9c0,0.5,0.1,1,0.4,1.4c0.3,0.4,0.6,0.6,1,0.8c0.4,0.2,0.8,0.3,1.2,0.4c0.4,0.1,0.8,0.3,1.1,0.4    c0.3,0.2,0.5,0.4,0.5,0.7c0,0.3-0.1,0.5-0.3,0.6c-0.2,0.2-0.5,0.2-0.9,0.2c-0.4,0-0.7-0.1-1.1-0.3c-0.3-0.2-0.6-0.3-0.7-0.5    c-0.1-0.1-0.1-0.2-0.2-0.2l-1.3,1.3l0.1,0.2c0.1,0.1,0.2,0.2,0.4,0.4c0.2,0.2,0.4,0.3,0.7,0.5c0.3,0.2,0.6,0.3,1,0.4    c0.4,0.1,0.9,0.2,1.4,0.2c1.1,0,2-0.3,2.6-0.8c0.6-0.5,0.9-1.2,0.9-2C106.6,15,106.5,14.6,106.2,14.2z"/>
		<path class="st0" d="M109.8,7.9c0.4,0,0.8-0.1,1-0.4c0.3-0.2,0.4-0.6,0.4-1c0-0.4-0.1-0.7-0.4-1c-0.3-0.2-0.6-0.4-1-0.4    c-0.4,0-0.7,0.1-1,0.4s-0.4,0.6-0.4,1c0,0.4,0.1,0.7,0.4,1C109.1,7.8,109.4,7.9,109.8,7.9z"/>
		<rect x="108.6" y="9.3" class="st0" width="2.4" height="9"/>
		<path class="st0" d="M118,16.3c-0.3,0-0.6-0.1-0.8-0.3c-0.2-0.2-0.3-0.5-0.3-0.8v-3.7h1.8V9.5h-1.8V6.6h-2.1v1.6    c0,0.4-0.1,0.7-0.3,0.9c-0.2,0.2-0.5,0.4-0.8,0.4h-0.8v2.1h1.6v3.8c0,2.1,0.9,3.1,2.8,3.1c0,0,0,0,0.1,0c0.6,0,1.1-0.1,1.6-0.3v-2    l0,0c-0.1,0-0.2,0.1-0.4,0.1C118.4,16.3,118.2,16.3,118,16.3z"/>
		<path class="st0" d="M124.5,9.1c-1.3,0-2.4,0.5-3.3,1.4c-0.9,0.9-1.4,2-1.4,3.3s0.5,2.4,1.4,3.3c0.9,0.9,2.1,1.4,3.4,1.4    c0.5,0,0.9-0.1,1.4-0.2c0.4-0.1,0.8-0.2,1.1-0.4c0.3-0.1,0.5-0.3,0.8-0.5c0.2-0.2,0.4-0.3,0.5-0.4l0.1-0.1l-1.2-1.6l-0.2,0.2    c-0.2,0.2-0.4,0.4-0.9,0.6c-0.4,0.2-0.9,0.3-1.3,0.3c-0.7,0-1.2-0.2-1.7-0.5c-0.4-0.3-0.7-0.8-0.8-1.3l0-0.1h6.6l0.1-1    c0-1.3-0.4-2.3-1.3-3.2C126.9,9.5,125.8,9.1,124.5,9.1z M122.3,12.9L122.3,12.9c0.2-0.6,0.4-1,0.8-1.3c0.4-0.3,0.8-0.5,1.4-0.5    s1,0.2,1.4,0.5c0.4,0.3,0.6,0.7,0.7,1.2l0,0.1H122.3z"/>
		<polygon class="st0" points="125.1,5.3 123.7,7.9 125.6,7.9 127.5,5.3   "/>
	</g>
	<g>
		<path class="st0" d="M52.3,35.3L52.3,35.3L52,35.5c-0.2,0.2-0.5,0.4-1,0.5c-0.5,0.2-1,0.3-1.6,0.3c-1.2,0-2.3-0.4-3.1-1.2    c-0.8-0.8-1.2-1.9-1.2-3.1c0-1.2,0.4-2.3,1.2-3.1c0.8-0.8,1.9-1.2,3.1-1.2c0.4,0,0.9,0.1,1.3,0.2c0.4,0.1,0.8,0.3,1,0.4    c0.3,0.2,0.5,0.4,0.7,0.6c0.2,0.2,0.4,0.4,0.4,0.5l0,0c0,0,0.1,0.1,0.1,0.1l1.7-1.7l-0.2-0.2c-0.1-0.2-0.3-0.4-0.6-0.6    c-0.3-0.3-0.7-0.5-1-0.8c-0.4-0.2-0.9-0.5-1.5-0.6c-0.6-0.2-1.3-0.3-1.9-0.3c-2,0-3.6,0.7-5,2c-1.3,1.3-2,2.9-2,4.7    c0,1.8,0.7,3.4,2,4.7c1.3,1.3,3,2,5,2c0.7,0,1.3-0.1,2-0.3c0.6-0.2,1.2-0.4,1.6-0.6c0.4-0.2,0.8-0.5,1.1-0.8    c0.4-0.3,0.6-0.5,0.7-0.6c0.1-0.1,0.2-0.2,0.2-0.2v-4.7h-5v1.9h2.3V35.3z"/>
		<path class="st0" d="M60.5,35.9c-0.3-0.3-0.5-0.8-0.5-1.3v-5.1h-2.4v5.4c0,1.1,0.3,2.1,1,2.7c0.6,0.7,1.5,1,2.5,1    c0.5,0,1-0.1,1.4-0.3c0.4-0.2,0.7-0.4,0.9-0.5c0.1-0.1,0.2-0.2,0.3-0.3l0.1-0.1v1h2.4v-9h-2.4v4.8c0,0.7-0.2,1.2-0.5,1.6    s-0.8,0.6-1.4,0.6C61.3,36.4,60.8,36.2,60.5,35.9z"/>
		<path class="st0" d="M73.7,33.6c-0.4-0.2-0.8-0.3-1.2-0.4s-0.8-0.3-1-0.4c-0.3-0.2-0.5-0.4-0.5-0.6c0-0.2,0.1-0.4,0.3-0.6    c0.2-0.2,0.5-0.2,0.8-0.2c0.3,0,0.6,0.1,0.8,0.2c0.3,0.1,0.4,0.3,0.5,0.3c0.1,0.1,0.1,0.1,0.1,0.2l1.2-1.4l-0.3-0.3    c-0.2-0.2-0.6-0.4-1.1-0.7c-0.5-0.2-1.1-0.3-1.7-0.3c-1,0-1.8,0.3-2.5,0.9c-0.7,0.6-1,1.2-1,1.9c0,0.5,0.1,1,0.4,1.4    c0.3,0.4,0.6,0.6,1,0.8c0.4,0.2,0.8,0.3,1.2,0.4c0.4,0.1,0.8,0.3,1.1,0.4c0.3,0.2,0.5,0.4,0.5,0.7c0,0.3-0.1,0.5-0.3,0.6    c-0.2,0.2-0.5,0.2-0.9,0.2c-0.4,0-0.7-0.1-1.1-0.3c-0.3-0.2-0.6-0.3-0.7-0.5c-0.1-0.1-0.1-0.2-0.2-0.2L68,37l0.1,0.2    c0.1,0.1,0.2,0.2,0.4,0.4c0.2,0.2,0.4,0.3,0.7,0.5c0.3,0.2,0.6,0.3,1,0.4c0.4,0.1,0.9,0.2,1.4,0.2c1.1,0,2-0.3,2.6-0.8    c0.6-0.5,0.9-1.2,0.9-2c0-0.6-0.1-1-0.4-1.4C74.5,34,74.1,33.8,73.7,33.6z"/>
		<path class="st0" d="M80.6,36.2c-0.2-0.2-0.3-0.5-0.3-0.8v-3.7h1.8v-2.1h-1.8v-2.9h-2.1v1.6c0,0.4-0.1,0.7-0.3,0.9    c-0.2,0.2-0.5,0.4-0.8,0.4h-0.8v2.1h1.6v3.8c0,2.1,0.9,3.1,2.8,3.1c0,0,0,0,0.1,0c0.6,0,1.1-0.1,1.6-0.3v-2l0,0    c-0.1,0-0.2,0.1-0.4,0.1c-0.2,0-0.3,0.1-0.5,0.1C81.1,36.5,80.9,36.4,80.6,36.2z"/>
		<path class="st0" d="M87.8,29.3c-0.4,0-0.9,0.1-1.3,0.2c-0.4,0.1-0.8,0.3-1,0.4c-0.2,0.1-0.5,0.3-0.7,0.5    c-0.2,0.2-0.4,0.3-0.4,0.4l0,0c0,0.1-0.1,0.1-0.1,0.1l1.3,1.3l0.2-0.2c0.1-0.2,0.4-0.3,0.7-0.5c0.3-0.2,0.7-0.2,1.1-0.2    c0.5,0,0.9,0.1,1.2,0.4c0.3,0.3,0.4,0.6,0.4,1v0l0,0l-2.9,0.5c-0.8,0.1-1.5,0.5-1.9,1c-0.5,0.5-0.7,1.1-0.7,1.8    c0,0.7,0.3,1.3,0.8,1.8c0.6,0.5,1.3,0.7,2.2,0.7c0.5,0,0.9-0.1,1.3-0.3c0.4-0.2,0.7-0.4,0.8-0.5c0.1-0.1,0.2-0.2,0.3-0.3l0.1-0.1    v1h2.4v-5.6c0-1-0.4-1.9-1.1-2.5C89.8,29.6,88.9,29.3,87.8,29.3z M89.2,34.6c0,0.7-0.2,1.2-0.5,1.5c-0.3,0.4-0.8,0.6-1.4,0.6    c-0.8,0-1.3-0.3-1.3-1c0-0.6,0.4-1,1.1-1.1l2.1-0.4V34.6z"/>
		<polygon class="st0" points="97.6,35.5 95.5,29.5 93,29.5 96.4,38.4 98.9,38.4 102.3,29.5 99.8,29.5 97.7,35.6   "/>
		<path class="st0" d="M107.8,29.3c-1.3,0-2.4,0.5-3.3,1.4c-0.9,0.9-1.4,2-1.4,3.3s0.5,2.4,1.4,3.3c0.9,0.9,2.1,1.4,3.4,1.4    c0.5,0,0.9-0.1,1.4-0.2c0.4-0.1,0.8-0.2,1.1-0.4c0.3-0.1,0.5-0.3,0.8-0.5c0.2-0.2,0.4-0.3,0.5-0.4l0.1-0.1l-1.2-1.6l-0.2,0.2    c-0.2,0.2-0.4,0.4-0.9,0.6c-0.4,0.2-0.9,0.3-1.3,0.3c-0.7,0-1.2-0.2-1.7-0.5c-0.4-0.3-0.7-0.8-0.8-1.3l0-0.1h6.6l0.1-1    c0-1.3-0.4-2.3-1.3-3.2C110.2,29.7,109.1,29.3,107.8,29.3z M105.6,33.1L105.6,33.1c0.2-0.6,0.4-1,0.8-1.3c0.4-0.3,0.8-0.5,1.4-0.5    c0.5,0,1,0.2,1.4,0.5c0.4,0.3,0.6,0.7,0.7,1.2l0,0.1H105.6z"/>
		<polygon class="st0" points="121.3,33.1 126.6,33.1 126.6,30.7 121.3,30.7 121.3,28 128.1,28 128.1,25.6 118.6,25.6 118.6,38.4     128.2,38.4 128.2,36.1 121.3,36.1   "/>
		<rect x="130.5" y="29.5" class="st0" width="2.4" height="9"/>
		<path class="st0" d="M131.6,25.5c-0.4,0-0.7,0.1-1,0.4c-0.2,0.2-0.4,0.6-0.4,1c0,0.4,0.1,0.7,0.4,1c0.2,0.2,0.6,0.4,1,0.4    c0.4,0,0.8-0.1,1-0.4c0.3-0.2,0.4-0.6,0.4-1c0-0.4-0.1-0.7-0.4-1C132.4,25.6,132.1,25.5,131.6,25.5z"/>
		<path class="st0" d="M132.7,27.8c-0.3,0.2-0.6,0.4-1,0.4c-0.4,0-0.7-0.1-1-0.4c-0.2-0.2-0.4-0.6-0.4-1c0-0.4,0.1-0.7,0.4-1    c0.2-0.2,0.6-0.4,1-0.4c0.4,0,0.8,0.1,1,0.4c0.3,0.2,0.4,0.6,0.4,1C133,27.2,132.9,27.5,132.7,27.8z"/>
		<path class="st0" d="M139.6,25.5c-0.3,0-0.5-0.1-0.8-0.1c-1.9,0-2.8,1-2.8,3.1v1.3h-1.3v2.1h1.3v6.6h2.4v-6.6h2v-2.1h-2v-1.2    c0-0.3,0.1-0.6,0.3-0.8c0.2-0.2,0.5-0.3,0.8-0.3c0.3,0,0.6,0.1,0.9,0.2v-2l-0.2-0.1C140.1,25.6,139.9,25.5,139.6,25.5z"/>
		<path class="st0" d="M146.4,25.5c-0.3,0-0.5-0.1-0.8-0.1c-1.9,0-2.8,1-2.8,3.1v1.3h-1.3v2.1h1.3v6.6h2.4v-6.6h2v-2.1h-2v-1.2    c0-0.3,0.1-0.6,0.3-0.8c0.2-0.2,0.5-0.3,0.8-0.3c0.3,0,0.6,0.1,0.9,0.2v-2l-0.2-0.1C146.9,25.6,146.7,25.5,146.4,25.5z"/>
		<path class="st0" d="M153.1,29.3c-1.3,0-2.4,0.5-3.3,1.4c-0.9,0.9-1.4,2-1.4,3.3s0.5,2.4,1.4,3.3c0.9,0.9,2.1,1.4,3.4,1.4    c0.5,0,0.9-0.1,1.4-0.2c0.4-0.1,0.8-0.2,1.1-0.4c0.3-0.1,0.5-0.3,0.8-0.5c0.2-0.2,0.4-0.3,0.5-0.4l0.1-0.1l-1.2-1.6l-0.2,0.2    c-0.2,0.2-0.4,0.4-0.9,0.6c-0.4,0.2-0.9,0.3-1.3,0.3c-0.7,0-1.2-0.2-1.7-0.5c-0.4-0.3-0.7-0.8-0.8-1.3l0-0.1h6.6l0.1-1    c0-1.3-0.4-2.3-1.3-3.2C155.4,29.7,154.4,29.3,153.1,29.3z M150.9,33.1L150.9,33.1c0.2-0.6,0.4-1,0.8-1.3c0.4-0.3,0.8-0.5,1.4-0.5    s1,0.2,1.4,0.5c0.4,0.3,0.6,0.7,0.7,1.2l0,0.1H150.9z"/>
		<rect x="159.6" y="25.6" class="st0" width="2.4" height="12.9"/>
	</g>
</g>
</svg>