<?xml version="1.0" encoding="UTF-8"?>
<!-- Generator: Adobe Illustrator 27.2.0, SVG Export Plug-In . SVG Version: 6.00 Build 0)  -->
<svg version="1.1" id="Calque_1" xmlns="http://www.w3.org/2000/svg" xmlns:xlink="http://www.w3.org/1999/xlink" x="0px" y="0px" viewBox="0 0 448 150" style="enable-background:new 0 0 448 150;" xml:space="preserve">
<style type="text/css">
	.st0{fill:#2F2A85;}
</style>
<g>
	<path class="st0" d="M233.6,143.2c0,3.4,0,4.5,3.9,4.5v0.8h-11.6v-0.8c3.9,0,3.9-1,3.9-4.5v-16.8c0-3.4,0-4.5-3.9-4.5v-0.8H237   c6.4,0,9.7,3.5,9.7,7.6c0,2.1-1.2,7.5-8.5,7.5c-1.5,0-3.1-0.3-4.5-0.7C233.6,135.7,233.6,143.2,233.6,143.2z M233.6,134.5   c1.1,0.2,2.6,0.4,3.9,0.4c2.6,0,4.5-2.9,4.5-5.8c0-3.4-2.1-6.2-5.6-6.2c-1,0-1.9,0.1-2.8,0.3V134.5z"/>
	<path class="st0" d="M255.4,139.3l-1.7,3.9c-0.3,0.7-0.9,2-0.9,2.8c0,1.5,1.7,1.7,3.2,1.8v0.8h-8.5v-0.8c2.1-0.2,3-1.3,4.2-4.2   l9.8-23h0.8l9.3,22.2c1,2.4,1.8,4.7,4.9,4.9v0.8h-10.7v-0.8c1.8-0.1,2.8-0.4,2.8-1.9c0-0.9-0.7-2.3-1-3.1l-1.4-3.4   C265.9,139.3,255.4,139.3,255.4,139.3z M260.7,126.9l-4.7,10.9h9.4L260.7,126.9z"/>
	<path class="st0" d="M301.5,148.5l-9.3-12.7h-2.8v7.5c0,3.4,0,4.5,3.9,4.5v0.8h-11.6v-0.8c3.9,0,3.9-1,3.9-4.5v-16.8   c0-3.4,0-4.5-3.9-4.5v-0.8h11.8c8.1,0,9.5,4.6,9.5,7.1c0,4-3.2,6.2-6.7,6.8l5.3,7.4c2,2.8,3.5,4.9,7.3,5.1v0.8L301.5,148.5   L301.5,148.5z M289.3,134.5h0.9c3.9,0,8.1-1.4,8.1-6c0-3.3-2.2-5.7-5.5-5.7c-1.1,0-2.2,0.2-3.4,0.3V134.5z"/>
	<path class="st0" d="M321.1,143.2c0,3.4,0,4.5,3.9,4.5v0.8h-11.6v-0.8c3.9,0,3.9-1,3.9-4.5v-16.8c0-3.4,0-4.5-3.9-4.5v-0.8H325v0.8   c-3.9,0-3.9,1-3.9,4.5V143.2z"/>
	<path class="st0" d="M349,130.1h-0.8c-0.3-4.3-3.1-7.8-7.6-7.8c-2.3,0-4.7,1.8-4.7,4.2c0,5.7,14.9,6.7,14.9,14.8   c0,4.3-3.4,7.8-8.6,7.8c-1.9,0-3.2-0.3-4.3-0.8c-1.1-0.3-2-0.8-2.9-0.8c-1,0-1.1,0.7-1.2,1.5H333v-9.3h0.8c0.7,6.5,5.6,7.7,8.1,7.7   c2.8,0,5.4-1.4,5.4-4.4c0-6.3-14.5-7-14.5-15.1c0-4.2,3.8-7.3,8.1-7.3c1.5,0,2.8,0.3,3.8,0.8c1,0.3,1.8,0.8,2.3,0.8   c1,0,1.2-0.8,1.4-1.5h0.8L349,130.1L349,130.1z"/>
	<rect x="223.2" y="109.9" class="st0" width="131" height="0.9"/>
	<path class="st0" d="M194.6,8h-36.8c-2.8,0-4.7,0.9-4.7,4.3V40h29.7l4.5,12h-34.2v28.6c0,4.3,2.5,6.4,7.3,6.4h36.8v6.8h-48.6   c-9.3,0-14.8-4.3-14.8-16.3V20.1C133.7,11,135,1,150.5,1h44.1V8z"/>
	<path class="st0" d="M444.1,8h-36.9c-2.8,0-4.7,0.9-4.7,4.3V40h29.7l4.5,12h-34.2v28.6c0,4.3,2.5,6.4,7.3,6.4h36.8v6.8h-48.7   c-9.3,0-14.8-4.3-14.8-14.8V21.7C383.1,11,384.5,1,399.9,1h44.1V8L444.1,8z"/>
	<path class="st0" d="M202.8,85.6c6.2,0.9,12.9,1.5,18.9,1.5c9.5,0,20.2-2.5,20.2-14.2c0-19.5-41.5-19.1-41.5-45.4   c0-20.9,18.3-26.5,32-26.5c8.6,0,15.9,0.9,21.1,1.5V9c-4.1-0.4-7.7-1.1-12-1.1c-9.6,0.1-23-0.3-23,13c0,17.7,42.8,16.8,42.8,46.9   c0,18.3-14.8,26.3-32,26.3c-9.7,0-17.9-0.2-26.5-2.3V85.6z"/>
	<polygon class="st0" points="275.5,2.4 275.5,94 294.8,94 294.8,15.9  "/>
	<path class="st0" d="M339,87.1c-4.7,0-7.3-2.1-7.3-6.4V52h34l-4.5-12h-29.5V12.3c0-3.4,2-4.3,4.7-4.3h36.8V1h-44.1   c-15.5,0-16.8,9.9-16.8,19.2v15.2l14.2,9.7l-14.2,9.2v23.3c0,12,5.6,16.3,14.8,16.3H373v-6.8H339z"/>
</g>
<g>
	<g>
		<path class="st0" d="M64.9,78.8c-5.1-3.5-11-5.3-17.1-5.3c-8.2,0-15.8,3-21.4,8.5c-3,3-5.3,6.5-6.9,10.5l-0.6,1.6H32l0.3-0.5    c0.7-1.1,1.5-2,2.4-2.9l0,0c3.4-3.3,8-5.1,13-5.1c6.1,0,11.7,3,15.1,8l0.3,0.5h13.3l-0.6-1.6C73.6,86.9,69.8,82.2,64.9,78.8z"/>
		<path class="st0" d="M13.1,26.2c-3-3-6.5-5.3-10.5-6.9L1,18.8v13.2l0.5,0.3c1.1,0.7,2,1.5,2.9,2.4c3.3,3.4,5.1,8,5.1,13    c0,6.1-3,11.7-8,15.1L1,63.1v13.3l1.6-0.6c5.5-2.2,10.3-6,13.7-11c3.5-5.1,5.3-11,5.3-17.1C21.6,39.5,18.6,31.9,13.1,26.2z"/>
		<path class="st0" d="M30.6,16.3c5.1,3.5,11,5.3,17.1,5.3c8.2,0,15.8-3,21.4-8.5c3-3,5.3-6.5,6.9-10.5L76.6,1H63.5l-0.3,0.5    c-0.7,1.1-1.5,2-2.4,2.9l0,0c-3.4,3.3-8,5.1-13,5.1c-6.1,0-11.7-3-15.1-8L32.3,1H19l0.6,1.6C21.9,8.2,25.7,12.9,30.6,16.3z"/>
		<path class="st0" d="M94,32.4l0.5-0.3V18.7l-1.6,0.6c-5.5,2.2-10.3,6-13.7,11c-3.5,5.1-5.3,11-5.3,17.1c0,8.2,3,15.8,8.5,21.4    c3,3,6.5,5.3,10.5,6.9l1.6,0.6V63.2l-0.5-0.3c-1.1-0.7-2-1.5-2.9-2.4c-3.3-3.4-5.1-8-5.1-13C85.9,41.4,88.9,35.8,94,32.4z"/>
	</g>
	<circle class="st0" cx="47.6" cy="47.7" r="12"/>
</g>
</svg>